<svg width="133" height="23" viewBox="0 0 133 23" fill="none" xmlns="http://www.w3.org/2000/svg">
<path d="M0.826 18V2.6H3.774L10.33 13.468H8.768L15.214 2.6H18.14L18.184 18H14.84L14.818 7.726H15.434L10.286 16.372H8.68L3.422 7.726H4.17V18H0.826ZM23.0917 22.444C22.4757 22.444 21.8671 22.3487 21.2657 22.158C20.6644 21.9673 20.1731 21.7033 19.7917 21.366L21.0457 18.924C21.3097 19.1587 21.6104 19.342 21.9477 19.474C22.2997 19.606 22.6444 19.672 22.9817 19.672C23.4657 19.672 23.8471 19.5547 24.1257 19.32C24.4191 19.1 24.6831 18.726 24.9177 18.198L25.5337 16.746L25.7977 16.372L30.0437 6.164H33.3437L27.9977 18.726C27.6164 19.6793 27.1764 20.4273 26.6777 20.97C26.1937 21.5127 25.6511 21.894 25.0497 22.114C24.4631 22.334 23.8104 22.444 23.0917 22.444ZM25.1157 18.462L19.8357 6.164H23.3777L27.4697 16.064L25.1157 18.462Z" fill="#293651"/>
<path d="M34.9862 18V2.6H41.6522C43.0308 2.6 44.2188 2.82733 45.2162 3.282C46.2135 3.722 46.9835 4.36 47.5262 5.196C48.0688 6.032 48.3402 7.02933 48.3402 8.188C48.3402 9.332 48.0688 10.322 47.5262 11.158C46.9835 11.994 46.2135 12.6393 45.2162 13.094C44.2188 13.534 43.0308 13.754 41.6522 13.754H36.9662L38.5502 12.148V18H34.9862ZM38.5502 12.544L36.9662 10.85H41.4542C42.5542 10.85 43.3755 10.6153 43.9182 10.146C44.4608 9.67667 44.7322 9.024 44.7322 8.188C44.7322 7.33733 44.4608 6.67733 43.9182 6.208C43.3755 5.73867 42.5542 5.504 41.4542 5.504H36.9662L38.5502 3.81V12.544ZM56.2531 18.176C54.9918 18.176 53.8698 17.912 52.8871 17.384C51.9191 16.856 51.1491 16.1373 50.5771 15.228C50.0198 14.304 49.7411 13.2553 49.7411 12.082C49.7411 10.894 50.0198 9.84533 50.5771 8.936C51.1491 8.012 51.9191 7.29333 52.8871 6.78C53.8698 6.252 54.9918 5.988 56.2531 5.988C57.4998 5.988 58.6144 6.252 59.5971 6.78C60.5798 7.29333 61.3498 8.00467 61.9071 8.914C62.4644 9.82333 62.7431 10.8793 62.7431 12.082C62.7431 13.2553 62.4644 14.304 61.9071 15.228C61.3498 16.1373 60.5798 16.856 59.5971 17.384C58.6144 17.912 57.4998 18.176 56.2531 18.176ZM56.2531 15.36C56.8251 15.36 57.3384 15.228 57.7931 14.964C58.2478 14.7 58.6071 14.326 58.8711 13.842C59.1351 13.3433 59.2671 12.7567 59.2671 12.082C59.2671 11.3927 59.1351 10.806 58.8711 10.322C58.6071 9.838 58.2478 9.464 57.7931 9.2C57.3384 8.936 56.8251 8.804 56.2531 8.804C55.6811 8.804 55.1678 8.936 54.7131 9.2C54.2584 9.464 53.8918 9.838 53.6131 10.322C53.3491 10.806 53.2171 11.3927 53.2171 12.082C53.2171 12.7567 53.3491 13.3433 53.6131 13.842C53.8918 14.326 54.2584 14.7 54.7131 14.964C55.1678 15.228 55.6811 15.36 56.2531 15.36ZM65.0371 18V6.164H68.3151V9.508L67.8531 8.54C68.2051 7.704 68.7698 7.07333 69.5471 6.648C70.3245 6.208 71.2705 5.988 72.3851 5.988V9.156C72.2385 9.14133 72.1065 9.134 71.9891 9.134C71.8718 9.11933 71.7471 9.112 71.6151 9.112C70.6765 9.112 69.9138 9.38333 69.3271 9.926C68.7551 10.454 68.4691 11.2827 68.4691 12.412V18H65.0371ZM79.674 18.176C78.2807 18.176 77.1953 17.824 76.418 17.12C75.6407 16.4013 75.252 15.338 75.252 13.93V3.546H78.684V13.886C78.684 14.3847 78.816 14.7733 79.08 15.052C79.344 15.316 79.7033 15.448 80.158 15.448C80.7007 15.448 81.1627 15.3013 81.544 15.008L82.468 17.428C82.116 17.6773 81.6907 17.868 81.192 18C80.708 18.1173 80.202 18.176 79.674 18.176ZM73.426 9.068V6.428H81.632V9.068H73.426ZM84.8125 18V5.9C84.8125 4.56533 85.2085 3.502 86.0005 2.71C86.7925 1.90333 87.9219 1.5 89.3885 1.5C89.8872 1.5 90.3639 1.55133 90.8185 1.654C91.2879 1.75667 91.6839 1.918 92.0065 2.138L91.1045 4.624C90.9139 4.492 90.7012 4.38933 90.4665 4.316C90.2319 4.24267 89.9825 4.206 89.7185 4.206C89.2199 4.206 88.8312 4.35267 88.5525 4.646C88.2885 4.92467 88.1565 5.35 88.1565 5.922V7.022L88.2445 8.496V18H84.8125ZM82.9865 9.068V6.428H91.1925V9.068H82.9865ZM98.384 18.176C97.1226 18.176 96.0006 17.912 95.018 17.384C94.05 16.856 93.28 16.1373 92.708 15.228C92.1506 14.304 91.872 13.2553 91.872 12.082C91.872 10.894 92.1506 9.84533 92.708 8.936C93.28 8.012 94.05 7.29333 95.018 6.78C96.0006 6.252 97.1226 5.988 98.384 5.988C99.6306 5.988 100.745 6.252 101.728 6.78C102.711 7.29333 103.481 8.00467 104.038 8.914C104.595 9.82333 104.874 10.8793 104.874 12.082C104.874 13.2553 104.595 14.304 104.038 15.228C103.481 16.1373 102.711 16.856 101.728 17.384C100.745 17.912 99.6306 18.176 98.384 18.176ZM98.384 15.36C98.956 15.36 99.4693 15.228 99.924 14.964C100.379 14.7 100.738 14.326 101.002 13.842C101.266 13.3433 101.398 12.7567 101.398 12.082C101.398 11.3927 101.266 10.806 101.002 10.322C100.738 9.838 100.379 9.464 99.924 9.2C99.4693 8.936 98.956 8.804 98.384 8.804C97.812 8.804 97.2986 8.936 96.844 9.2C96.3893 9.464 96.0226 9.838 95.744 10.322C95.48 10.806 95.348 11.3927 95.348 12.082C95.348 12.7567 95.48 13.3433 95.744 13.842C96.0226 14.326 96.3893 14.7 96.844 14.964C97.2986 15.228 97.812 15.36 98.384 15.36ZM107.168 18V1.676H110.6V18H107.168ZM113.785 18V6.164H117.217V18H113.785ZM115.501 4.514C114.871 4.514 114.357 4.33067 113.961 3.964C113.565 3.59733 113.367 3.14267 113.367 2.6C113.367 2.05733 113.565 1.60267 113.961 1.236C114.357 0.869332 114.871 0.685999 115.501 0.685999C116.132 0.685999 116.645 0.861999 117.041 1.214C117.437 1.55133 117.635 1.99133 117.635 2.534C117.635 3.106 117.437 3.58267 117.041 3.964C116.66 4.33067 116.147 4.514 115.501 4.514ZM126.034 18.176C124.773 18.176 123.651 17.912 122.668 17.384C121.7 16.856 120.93 16.1373 120.358 15.228C119.801 14.304 119.522 13.2553 119.522 12.082C119.522 10.894 119.801 9.84533 120.358 8.936C120.93 8.012 121.7 7.29333 122.668 6.78C123.651 6.252 124.773 5.988 126.034 5.988C127.281 5.988 128.396 6.252 129.378 6.78C130.361 7.29333 131.131 8.00467 131.688 8.914C132.246 9.82333 132.524 10.8793 132.524 12.082C132.524 13.2553 132.246 14.304 131.688 15.228C131.131 16.1373 130.361 16.856 129.378 17.384C128.396 17.912 127.281 18.176 126.034 18.176ZM126.034 15.36C126.606 15.36 127.12 15.228 127.574 14.964C128.029 14.7 128.388 14.326 128.652 13.842C128.916 13.3433 129.048 12.7567 129.048 12.082C129.048 11.3927 128.916 10.806 128.652 10.322C128.388 9.838 128.029 9.464 127.574 9.2C127.12 8.936 126.606 8.804 126.034 8.804C125.462 8.804 124.949 8.936 124.494 9.2C124.04 9.464 123.673 9.838 123.394 10.322C123.13 10.806 122.998 11.3927 122.998 12.082C122.998 12.7567 123.13 13.3433 123.394 13.842C123.673 14.326 124.04 14.7 124.494 14.964C124.949 15.228 125.462 15.36 126.034 15.36Z" fill="#A53A42"/>
</svg>
